<svg xmlns="http://www.w3.org/2000/svg" width="38" height="49" fill="none"><path fill="#828EFF" d="M5.032 44.331H2.017v1.596h3.437v1.116H.75v-6.207h4.552v1.099H2.017v1.318h3.015v1.078Zm5.511-3.495v1.099H8.686v5.108H7.381v-5.108H5.515v-1.1h5.028Zm4.033 6.207v-2.77H12.15v2.77h-1.284v-6.207h1.284v2.367h2.426v-2.367h1.289v6.207h-1.289Zm9.569 0h-1.668l-1.916-2.712-.619.636v2.076h-1.276v-6.207h1.276v2.556l2.396-2.556h1.676l-2.543 2.556 2.674 3.651Zm.2-6.207h1.289v6.207h-1.289v-6.207Zm4.707 3.975h-1.318v2.232h-1.289v-6.207h2.704c.623 0 1.12.16 1.49.48.371.32.556.815.556 1.486 0 .733-.185 1.251-.555 1.554-.371.304-.9.455-1.588.455Zm.606-1.293c.169-.148.253-.384.253-.707 0-.323-.086-.553-.257-.69-.168-.138-.406-.207-.712-.207h-1.208v1.828h1.208c.306 0 .545-.075.716-.224Zm5.751 1.133v-3.815h1.318v3.815c0 .66-.102 1.174-.307 1.541-.382.674-1.11 1.011-2.186 1.011-1.075 0-1.805-.337-2.19-1.01-.205-.368-.307-.882-.307-1.542v-3.815h1.318v3.815c0 .427.05.738.152.935.157.348.5.522 1.027.522.525 0 .866-.174 1.023-.522.102-.197.152-.508.152-.935Z" data-darkreader-inline-fill="" style="--darkreader-inline-fill: #19237e;"></path><path fill="#828EFF" d="M5.032 44.331H2.017v1.596h3.437v1.116H.75v-6.207h4.552v1.099H2.017v1.318h3.015v1.078Zm5.511-3.495v1.099H8.686v5.108H7.381v-5.108H5.515v-1.1h5.028Zm4.033 6.207v-2.77H12.15v2.77h-1.284v-6.207h1.284v2.367h2.426v-2.367h1.289v6.207h-1.289Zm9.569 0h-1.668l-1.916-2.712-.619.636v2.076h-1.276v-6.207h1.276v2.556l2.396-2.556h1.676l-2.543 2.556 2.674 3.651Zm.2-6.207h1.289v6.207h-1.289v-6.207Zm4.707 3.975h-1.318v2.232h-1.289v-6.207h2.704c.623 0 1.12.16 1.49.48.371.32.556.815.556 1.486 0 .733-.185 1.251-.555 1.554-.371.304-.9.455-1.588.455Zm.606-1.293c.169-.148.253-.384.253-.707 0-.323-.086-.553-.257-.69-.168-.138-.406-.207-.712-.207h-1.208v1.828h1.208c.306 0 .545-.075.716-.224Zm5.751 1.133v-3.815h1.318v3.815c0 .66-.102 1.174-.307 1.541-.382.674-1.11 1.011-2.186 1.011-1.075 0-1.805-.337-2.19-1.01-.205-.368-.307-.882-.307-1.542v-3.815h1.318v3.815c0 .427.05.738.152.935.157.348.5.522 1.027.522.525 0 .866-.174 1.023-.522.102-.197.152-.508.152-.935Z" data-darkreader-inline-fill="" style="--darkreader-inline-fill: #19237e;"></path><circle cx="17.315" cy="44.138" r="0.691" fill="#828EFF" data-darkreader-inline-fill="" style="--darkreader-inline-fill: #76a3e6;"></circle><path fill="#828EFF" fill-rule="evenodd" d="M36.522 17.064a1.852 1.852 0 0 1 0 2.62L20 36.205a1.852 1.852 0 0 1-2.62 0L.86 19.684a1.852 1.852 0 0 1 0-2.62L17.38.543a1.852 1.852 0 0 1 2.619 0l16.522 16.521Zm-8.347-5.385L18.78 2.283a.165.165 0 0 0-.234 0L13.627 7.2a5.154 5.154 0 0 1 2.247.216c1.109.36 2.198 1.105 3.417 2.235.076.049.15.106.216.173l7.785 7.786c.019.018.037.037.054.056.698-.843 1.18-1.621 1.434-2.37.394-1.161.258-2.3-.626-3.602l.021-.015Zm1.849 1.848 4.783 4.784a.165.165 0 0 1 0 .234l-9.314 9.313c-1.735.693-3.054.737-4.302.268-.562-.21-1.123-.53-1.708-.961l.024-.024 7.785-7.785c.06-.06.111-.123.156-.19 1.12-1.2 1.946-2.355 2.344-3.526.24-.708.321-1.409.232-2.113Zm-4.214 5.8-2.047 2.046v-5.78l2.773 2.773a.165.165 0 0 1 .042.165c-.242.256-.5.518-.777.787l.009.008Zm-7.246 7.09a19.91 19.91 0 0 1-.127-.112l-2.69-2.69h5.775l-2.771 2.77a.165.165 0 0 1-.187.033Zm2.265 2.673c-.923-.347-1.807-.927-2.72-1.704a1.232 1.232 0 0 1-.348-.245l-7.785-7.785a1.318 1.318 0 0 1-.04-.041c-.385.49-.69.96-.921 1.432-.55 1.122-.695 2.296-.41 3.886l9.94 9.94c.064.064.17.064.234 0l5.206-5.206c-1.12.192-2.148.101-3.156-.277ZM10.691 18.433c.148-.16.304-.325.468-.494l.652-.652c.158-.155.322-.313.492-.475l-.009-.009 1.395-1.395v6.15L10.732 18.6a.165.165 0 0 1-.041-.167Zm-2.6 1.861c.383-.783.933-1.538 1.636-2.33.06-.128.143-.248.249-.354l7.785-7.786.05-.047c-.835-.685-1.567-1.116-2.268-1.344-1.035-.337-2.071-.252-3.394.246L2.517 18.31a.165.165 0 0 0 0 .234l4.923 4.922c-.046-1.162.164-2.18.65-3.172Zm11.25-9.123-.01.01c-.227-.23-.447-.445-.66-.645a.165.165 0 0 0-.154.044l-2.96 2.96h6.154l-2.37-2.37Zm16.222 8.13a1.235 1.235 0 0 0 0-1.746L19.535 1.526a1.235 1.235 0 0 0-1.746 0L1.76 17.555a1.235 1.235 0 0 0 0 1.746l16.028 16.028a1.235 1.235 0 0 0 1.746 0L35.563 19.3Zm-20.227-4.732h6.781c.341 0 .617.277.617.618v6.781c0 .341-.276.617-.617.617h-6.781a.617.617 0 0 1-.618-.617v-6.781c0-.341.277-.618.618-.618Zm.214 1.233c0-.227.184-.412.412-.412h5.62c.228 0 .412.185.412.412v5.62a.411.411 0 0 1-.412.412h-5.62a.411.411 0 0 1-.412-.411v-5.621Z" clip-rule="evenodd" data-darkreader-inline-fill="" style="--darkreader-inline-fill: #19237e;"></path><path fill="#EAAEFF" d="M16.805 16.465c-.1 0-.18.08-.18.18v3.935c0 .1.08.18.18.18h3.935c.1 0 .18-.08.18-.18v-3.935c0-.1-.08-.18-.18-.18h-3.935Z" data-darkreader-inline-fill="" style="--darkreader-inline-fill: #cf8fe6;"></path></svg>